# xmcd
#
# Track frame offsets: 
#        150
#        30500
#        49545
#        72107
#        103387
#        126912
#        158552
#        186365
#        216267
#        241340
#
# Disc length: 3595 seconds
#
# Revision: 0
# Processed by: cddbd v1.5.2PL0 Copyright (c) Steve Scherf et al.
# Submitted via: ExactAudioCopy v0.95b1
#
DISCID=890e090a
DTITLE=Gene Harris \\ Scott Hamilton - At Last
DYEAR=1990
DGENRE=Blues
TTITLE0=You are my sunshine
TTITLE1=It never entered my mind
TTITLE2=after you've gone
TTITLE3=the lamp is low
TTITLE4=at last
TTITLE5=blues for gene
TTITLE6=i fall in love too easily
TTITLE7=some of these days
TTITLE8=stairway to the stars
TTITLE9=sittin' in the sandrap
EXTD=
EXTT0=
EXTT1=
EXTT2=
EXTT3=
EXTT4=
EXTT5=
EXTT6=
EXTT7=
EXTT8=
EXTT9=
PLAYORDER=
